<svg width="20" height="6" viewBox="0 0 20 6" fill="none" xmlns="http://www.w3.org/2000/svg">
<path d="M19 3C19 2.17157 18.3284 1.5 17.5 1.5C16.6716 1.5 16 2.17157 16 3C16 3.82843 16.6716 4.5 17.5 4.5C18.3284 4.5 19 3.82843 19 3Z" stroke="#100937" stroke-opacity="0.3" stroke-width="1.5"/>
<path d="M11.5 3C11.5 2.17157 10.8284 1.5 10 1.5C9.17157 1.5 8.5 2.17157 8.5 3C8.5 3.82843 9.17157 4.5 10 4.5C10.8284 4.5 11.5 3.82843 11.5 3Z" stroke="#100937" stroke-opacity="0.3" stroke-width="1.5"/>
<path d="M4 3C4 2.17157 3.32843 1.5 2.5 1.5C1.67157 1.5 1 2.17157 1 3C1 3.82843 1.67157 4.5 2.5 4.5C3.32843 4.5 4 3.82843 4 3Z" stroke="#100937" stroke-opacity="0.3" stroke-width="1.5"/>
</svg>
