<svg width="26" height="20" viewBox="0 0 26 20" fill="none" xmlns="http://www.w3.org/2000/svg">
<path d="M19.6143 8.8517C20.5143 8.8517 21.3775 8.49588 22.0139 7.86251C22.6503 7.22913 23.0078 6.3701 23.0078 5.47437C23.0078 4.57865 22.6503 3.71961 22.0139 3.08624C21.3775 2.45287 20.5143 2.09705 19.6143 2.09705" stroke="#5329FF" stroke-width="1.5" stroke-miterlimit="10" stroke-linecap="round" stroke-linejoin="round"/>
<path d="M21.1753 12.5272C21.7357 12.5649 22.2924 12.6451 22.8405 12.7671C23.2376 12.8002 23.6227 12.9193 23.9688 13.116C24.3148 13.3127 24.6135 13.5824 24.8439 13.906C24.9466 14.1215 24.9999 14.357 24.9999 14.5955C24.9999 14.834 24.9466 15.0695 24.8439 15.2849C24.6129 15.6085 24.3142 15.8785 23.9683 16.0764C23.6225 16.2742 23.2377 16.3951 22.8405 16.4309" stroke="#5329FF" stroke-width="1.5" stroke-miterlimit="10" stroke-linecap="round" stroke-linejoin="round"/>
<path d="M6.38284 8.8517C5.48281 8.8517 4.61964 8.49588 3.98322 7.86251C3.3468 7.22913 2.98926 6.3701 2.98926 5.47437C2.98926 4.57865 3.3468 3.71961 3.98322 3.08624C4.61964 2.45287 5.48281 2.09705 6.38284 2.09705" stroke="#5329FF" stroke-width="1.5" stroke-miterlimit="10" stroke-linecap="round" stroke-linejoin="round"/>
<path d="M4.82418 12.5272C4.26379 12.5649 3.70711 12.6451 3.15898 12.7671C2.76198 12.8001 2.37703 12.9192 2.03116 13.1159C1.68528 13.3127 1.38684 13.5824 1.15677 13.906C1.05356 14.1214 1 14.3569 1 14.5955C1 14.834 1.05356 15.0696 1.15677 15.2849C1.38749 15.6086 1.68595 15.8786 2.0316 16.0764C2.37725 16.2743 2.76187 16.3952 3.15898 16.4309" stroke="#5329FF" stroke-width="1.5" stroke-miterlimit="10" stroke-linecap="round" stroke-linejoin="round"/>
<path d="M12.9945 13.255C16.7942 13.255 20.0403 13.8269 20.0403 16.1176C20.0403 18.4084 16.8152 19 12.9945 19C9.1937 19 5.94873 18.427 5.94873 16.1374C5.94873 13.8478 9.17381 13.255 12.9945 13.255Z" stroke="#5329FF" stroke-width="1.5" stroke-miterlimit="10" stroke-linecap="round" stroke-linejoin="round"/>
<path d="M12.9945 9.98836C12.1013 9.98859 11.2281 9.7252 10.4854 9.23152C9.74258 8.73783 9.16359 8.03602 8.82162 7.21483C8.47965 6.39365 8.39006 5.48998 8.56417 4.61812C8.73828 3.74626 9.16828 2.94537 9.79978 2.31673C10.4313 1.68809 11.2359 1.25994 12.1119 1.08644C12.9879 0.912938 13.896 1.00187 14.7212 1.34199C15.5464 1.68211 16.2518 2.25814 16.748 2.99723C17.2443 3.73632 17.5092 4.60526 17.5092 5.49418C17.5113 6.08487 17.396 6.67015 17.1699 7.2163C16.9438 7.76246 16.6114 8.2587 16.1917 8.67643C15.7721 9.09417 15.2736 9.42515 14.7248 9.65031C14.1761 9.87547 13.5881 9.99036 12.9945 9.98836V9.98836Z" stroke="#5329FF" stroke-width="1.5" stroke-miterlimit="10" stroke-linecap="round" stroke-linejoin="round"/>
</svg>
