<svg width="24" height="20" viewBox="0 0 24 20" fill="none" xmlns="http://www.w3.org/2000/svg">
<path d="M9.38524 12.3093C9.03518 11.9766 8.75763 11.5803 8.56876 11.1436C8.37989 10.7069 8.28347 10.2386 8.28512 9.76578C8.28368 9.05206 8.50302 8.35399 8.91537 7.75997C9.32771 7.16594 9.9145 6.70268 10.6014 6.42885C11.2884 6.15502 12.0446 6.08294 12.7742 6.22174C13.5039 6.36053 14.1742 6.70396 14.7003 7.20853" stroke="#100937" stroke-opacity="0.6" stroke-width="1.5" stroke-miterlimit="10" stroke-linecap="round" stroke-linejoin="round"/>
<path d="M15.7408 10.406C15.6045 11.1263 15.2428 11.7898 14.7038 12.308C14.1647 12.8262 13.474 13.1745 12.7235 13.3067" stroke="#100937" stroke-opacity="0.6" stroke-width="1.5" stroke-miterlimit="10" stroke-linecap="round" stroke-linejoin="round"/>
<path d="M5.68528 15.8525C3.63433 14.2246 2.03991 12.1307 1.04694 9.76116C2.05441 7.38134 3.66212 5.27885 5.72571 3.64249C7.50975 2.23693 9.73986 1.45687 12.0481 1.431C14.367 1.45964 16.606 2.24754 18.3943 3.66417" stroke="#100937" stroke-opacity="0.6" stroke-width="1.5" stroke-miterlimit="10" stroke-linecap="round" stroke-linejoin="round"/>
<path d="M20.9061 6.17468C21.7649 7.28607 22.4835 8.49111 23.0469 9.76464C20.7075 14.9647 16.5735 18.0948 12.0457 18.0948C11.0229 18.095 10.0068 17.9367 9.03674 17.6258" stroke="#100937" stroke-opacity="0.6" stroke-width="1.5" stroke-miterlimit="10" stroke-linecap="round" stroke-linejoin="round"/>
<path d="M21.4281 0.764648L2.66785 18.7646" stroke="#100937" stroke-opacity="0.6" stroke-width="1.5" stroke-miterlimit="10" stroke-linecap="round" stroke-linejoin="round"/>
</svg>
